<svg width="124" height="123" xmlns="http://www.w3.org/2000/svg" xmlns:xlink="http://www.w3.org/1999/xlink" overflow="hidden"><defs><clipPath id="clip0"><rect x="578" y="505" width="124" height="123"/></clipPath></defs><g clip-path="url(#clip0)" transform="translate(-578 -505)"><path d="M39.7188 39.7188 25.625 39.7188 25.625 30.75 39.7188 30.75 39.7188 39.7188ZM58.9375 30.75 58.9375 39.7188 44.8438 39.7188 44.8438 30.75 58.9375 30.75ZM78.1562 30.75 78.1562 39.7188 64.0625 39.7188 64.0625 30.75 78.1562 30.75ZM97.375 30.75 97.375 39.7188 83.2812 39.7188 83.2812 30.75 97.375 30.75ZM97.375 53.8125 83.2812 53.8125 83.2812 44.8438 97.375 44.8438 97.375 53.8125ZM97.375 64.7031 83.2812 65.9844 83.2812 58.9375 97.375 58.9375 97.375 64.7031ZM39.7188 58.9375 39.7188 69.8281 25.625 71.1094 25.625 58.9375 39.7188 58.9375ZM39.7188 53.8125 25.625 53.8125 25.625 44.8438 39.7188 44.8438 39.7188 53.8125ZM58.9375 53.8125 44.8438 53.8125 44.8438 44.8438 58.9375 44.8438 58.9375 53.8125ZM64.0625 53.8125 64.0625 44.8438 78.1562 44.8438 78.1562 53.8125 64.0625 53.8125ZM58.9375 68.1625 44.8438 69.4437 44.8438 58.9375 58.9375 58.9375 58.9375 68.1625ZM64.0625 58.9375 78.1562 58.9375 78.1562 66.3688 64.0625 67.65 64.0625 58.9375ZM105.062 71.75 105.062 23.0625 25.625 23.0625 25.625 21.7812C25.625 15.375 20.5 10.25 14.0938 10.25 11.9156 10.25 10.25 11.9156 10.25 14.0938 10.25 16.2719 11.9156 17.9375 14.0938 17.9375 16.2719 17.9375 17.9375 19.6031 17.9375 21.7812L17.9375 85.8438C17.9375 92.25 23.0625 97.375 29.4688 97.375L33.3125 97.375 89.6875 97.375 101.219 97.375C103.397 97.375 105.062 95.7094 105.062 93.5312 105.062 91.3531 103.397 89.6875 101.219 89.6875L29.4688 89.6875C27.2906 89.6875 25.625 88.0219 25.625 85.8438L25.625 78.7969 105.062 71.75Z" stroke="#4472C4" stroke-width="1.28125" fill="#4472C4" transform="matrix(1.00813 0 0 1 578 505)"/><path d="M41 105.062C41 109.308 37.5582 112.75 33.3125 112.75 29.0668 112.75 25.625 109.308 25.625 105.062 25.625 100.817 29.0668 97.375 33.3125 97.375 37.5582 97.375 41 100.817 41 105.062Z" stroke="#4472C4" stroke-width="1.28125" fill="#4472C4" transform="matrix(1.00813 0 0 1 578 505)"/><path d="M97.375 105.062C97.375 109.308 93.9332 112.75 89.6875 112.75 85.4418 112.75 82 109.308 82 105.062 82 100.817 85.4418 97.375 89.6875 97.375 93.9332 97.375 97.375 100.817 97.375 105.062Z" stroke="#4472C4" stroke-width="1.28125" fill="#4472C4" transform="matrix(1.00813 0 0 1 578 505)"/></g></svg>